HIERARCHY
ROOT Hips
{
	OFFSET 0.000000 0.000000 0.000000
	CHANNELS 6 Xposition Yposition Zposition Zrotation Yrotation Xrotation 
	JOINT LHipJoint
	{
		OFFSET 0.000000 0.000000 0.000000
		CHANNELS 3 Zrotation Yrotation Xrotation
		JOINT LeftUpLeg
		{
			OFFSET 1.363060 -1.794630 0.839290
			CHANNELS 3 Zrotation Yrotation Xrotation
			JOINT LeftLeg
			{
				OFFSET 2.448110 -6.726130 0.000000
				CHANNELS 3 Zrotation Yrotation Xrotation
				JOINT LeftFoot
				{
					OFFSET 2.562200 -7.039590 0.000000
					CHANNELS 3 Zrotation Yrotation Xrotation
					JOINT LeftToeBase
					{
						OFFSET 0.157640 -0.433110 2.322550
						CHANNELS 3 Zrotation Yrotation Xrotation
						End Site
						{
							OFFSET 0.000000 0.000000 0.000000
						}
					}
				}
			}
		}
	}
	JOINT RHipJoint
	{
		OFFSET 0.000000 0.000000 0.000000
		CHANNELS 3 Zrotation Yrotation Xrotation
		JOINT RightUpLeg
		{
			OFFSET -1.305520 -1.794630 0.839290
			CHANNELS 3 Zrotation Yrotation Xrotation
			JOINT RightLeg
			{
				OFFSET -2.542530 -6.985550 0.000000
				CHANNELS 3 Zrotation Yrotation Xrotation
				JOINT RightFoot
				{
					OFFSET -2.568260 -7.056230 0.000000
					CHANNELS 3 Zrotation Yrotation Xrotation
					JOINT RightToeBase
					{
						OFFSET -0.164730 -0.452590 2.363150
						CHANNELS 3 Zrotation Yrotation Xrotation
						End Site
						{
							OFFSET 0.000000 0.000000 0.000000
						}
					}
				}
			}
		}
	}
}
MOTION
Frames: 22
Frame Time: 0.008333
0.782386 17.527913 0.202354 -41.018065 -68.573840 43.179920 -14.997831 -4.164125 -6.699381 3.344205 -4.473107 -7.962320 -0.180487 2.926074 30.880101 1.021068 5.151477 -3.857023 0.245000 0.000000 -44.944900 3.701507 7.725419 3.124875 -4.976713 -20.489268 -110.484783 2.329142 2.277437 -6.159432 -1.047938 -10.132018 2.575416 -4.411100 -0.000000 -70.442900
0.783038 17.479548 0.196619 -39.835541 -68.129500 42.041921 -14.870620 -4.005224 -6.323536 3.043267 -4.448444 -8.481506 -0.246108 2.801894 30.953024 0.973548 4.881480 -5.244564 0.127800 -0.000000 -43.027000 3.684264 7.783305 2.885367 -4.369618 -20.763931 -106.426080 2.155518 2.490666 -10.308305 -1.827320 -10.916522 8.104515 -4.690600 -0.000000 -74.146600
0.786417 17.430734 0.193167 -38.717598 -67.903128 41.054892 -14.798957 -3.890695 -6.072173 2.668756 -4.590840 -8.831805 -0.331870 2.706419 30.954724 0.954395 4.769987 -6.570816 0.024300 0.000000 -41.243500 3.929655 7.663573 2.844533 -3.288951 -20.598893 -107.496735 2.496707 1.772996 -5.342485 -1.764524 -9.752640 9.938515 -4.396201 -0.000000 -77.797500
0.792740 17.381581 0.191385 -37.823586 -67.640319 39.993390 -14.736627 -3.769688 -5.836519 2.329448 -4.885049 -8.716042 -0.408454 2.626941 30.836073 0.960122 4.796139 -7.831770 -0.075500 0.000000 -39.554900 4.093751 7.522126 2.567578 -1.616199 -20.321052 -109.555500 2.941001 0.630470 2.310089 -1.380334 -7.631582 11.459193 -3.729300 -0.000000 -79.888800
0.801269 17.332840 0.191082 -37.375734 -67.320622 39.076512 -14.686109 -3.647052 -5.593583 2.134491 -5.170438 -8.241332 -0.466548 2.558005 30.640324 0.980782 4.886977 -9.046330 -0.179100 0.000000 -37.952200 4.085701 7.407699 2.034799 -0.119510 -20.167536 -110.531808 3.148157 -0.562015 9.676917 -1.046083 -5.833648 13.676468 -3.124699 -0.000000 -79.611100
0.810730 17.285831 0.192379 -37.411714 -67.047616 38.532236 -14.649243 -3.537636 -5.356567 2.078672 -5.338540 -7.661836 -0.508493 2.492178 30.417095 1.013734 5.026933 -10.227678 -0.290200 0.000000 -36.399700 3.960828 7.308176 1.414797 0.897873 -20.045680 -110.209247 3.110074 -1.561032 15.899011 -0.857484 -4.679334 16.276696 -2.697500 0.000000 -77.178000
0.820495 17.241619 0.194389 -37.781629 -66.904728 38.332484 -14.608915 -3.440896 -5.140442 2.058378 -5.399124 -7.079764 -0.540123 2.423027 30.158339 1.065404 5.263983 -11.375128 -0.413800 0.000001 -34.762600 3.801115 7.206215 0.809707 1.569610 -19.787979 -108.994928 2.957686 -2.319574 20.989283 -0.775003 -3.924632 18.728053 -2.364900 0.000000 -73.413300
0.829354 17.201203 0.196629 -38.365274 -66.928616 38.443153 -14.558907 -3.351996 -4.942439 2.014858 -5.361342 -6.591769 -0.565354 2.346574 29.873916 1.136739 5.606094 -12.478277 -0.554400 0.000001 -33.036800 3.669270 7.088683 0.277504 2.022027 -19.295714 -107.286872 2.777479 -2.879430 25.167408 -0.759173 -3.450506 20.711898 -2.115200 0.000000 -69.597600
0.836850 17.165121 0.198268 -39.060243 -67.115373 38.777801 -14.492877 -3.264444 -4.759141 1.906699 -5.248182 -6.211532 -0.587156 2.262028 29.562076 1.226613 6.046487 -13.522963 -0.714000 0.000000 -31.204600 3.595231 6.952015 -0.176700 2.375789 -18.556925 -105.370761 2.600799 -3.308662 28.736149 -0.776039 -3.169515 22.119407 -1.938099 -0.000000 -66.708100
0.842333 17.133783 0.198540 -39.793580 -67.434196 39.265181 -14.410645 -3.172475 -4.581015 1.728370 -5.073750 -5.960120 -0.606639 2.170218 29.237434 1.328987 6.549940 -14.484324 -0.888600 -0.000000 -29.391300 3.587026 6.795441 -0.557023 2.711904 -17.610774 -103.414253 2.429884 -3.656741 31.918087 -0.807423 -3.042164 22.988721 -1.833200 0.000000 -65.264100
0.846321 17.107013 0.197115 -40.559660 -67.844593 39.852846 -14.319594 -3.076580 -4.413334 1.508395 -4.833834 -5.785711 -0.626146 2.075877 28.899641 1.435011 7.061463 -15.363035 -1.071400 0.000000 -27.468400 3.630791 6.624522 -0.893070 3.069969 -16.514929 -101.419240 2.255460 -3.949675 34.861161 -0.845017 -3.030113 23.403847 -1.785600 -0.000000 -65.390500
0.847978 17.084940 0.193213 -41.280703 -68.297536 40.459272 -14.221925 -2.972018 -4.243616 1.260379 -4.545988 -5.716155 -0.645532 1.981183 28.579209 1.534678 7.531423 -16.124179 -1.248201 -0.000000 -25.729100 3.722584 6.439677 -1.186495 3.489651 -15.349791 -99.423094 2.075890 -4.200092 37.608661 -0.881124 -3.082789 23.484755 -1.771700 -0.000001 -66.766900
0.847526 17.067246 0.186328 -41.918069 -68.754390 41.014265 -14.122130 -2.859483 -4.074652 1.005269 -4.216983 -5.720079 -0.666452 1.890261 28.285141 1.619078 7.913825 -16.760075 -1.406100 0.000000 -24.194100 3.851855 6.245529 -1.452631 3.968642 -14.185673 -97.367115 1.891084 -4.408744 40.152724 -0.911614 -3.150155 23.329679 -1.763400 -0.000000 -68.924600
0.844818 17.053657 0.176401 -42.425130 -69.182418 41.463075 -14.025169 -2.739059 -3.903602 0.762022 -3.857301 -5.800342 -0.689579 1.806146 28.037432 1.680559 8.172902 -17.260056 -1.531999 -0.000000 -22.997700 4.011745 6.042884 -1.694983 4.500694 -13.080652 -95.213989 1.708445 -4.574075 42.443887 -0.932714 -3.194376 23.011418 -1.741100 0.000001 -71.227000
0.840106 17.043641 0.162254 -42.726011 -69.574639 41.711233 -13.921892 -2.612007 -3.739610 0.506517 -3.485546 -5.912133 -0.717719 1.729510 27.822368 1.717921 8.304080 -17.630619 -1.621500 -0.000000 -22.031500 4.204012 5.837640 -1.915282 5.024894 -12.076352 -92.912604 1.532033 -4.692169 44.425466 -0.942948 -3.177690 22.618693 -1.686100 0.000000 -73.349600
0.833251 17.037018 0.144604 -42.796375 -69.915197 41.749936 -13.818151 -2.478730 -3.574551 0.253288 -3.116453 -6.085733 -0.750101 1.661279 27.659802 1.729077 8.300306 -17.872334 -1.669600 0.000000 -21.416100 4.422353 5.626278 -2.108587 5.537201 -11.194679 -90.474254 1.373568 -4.766566 46.056156 -0.941190 -3.101943 22.151860 -1.602300 0.000000 -74.668200
0.824517 17.033321 0.122953 -42.586306 -70.209783 41.525907 -13.705604 -2.340220 -3.412031 -0.026118 -2.774038 -6.293571 -0.787471 1.600073 27.529721 1.718692 8.187271 -17.996837 -1.680500 -0.000000 -21.070300 4.666915 5.412156 -2.273080 5.991269 -10.445109 -87.903633 1.235789 -4.800744 47.326120 -0.929938 -2.974557 21.636697 -1.495500 0.000000 -75.079200
0.813801 17.032179 0.097618 -42.085544 -70.459215 41.035909 -13.583094 -2.197699 -3.250313 -0.339491 -2.473700 -6.529193 -0.829167 1.544283 27.419780 1.691250 7.988005 -18.020164 -1.660300 0.000000 -20.953600 4.932672 5.195137 -2.407692 6.370711 -9.823247 -85.230044 1.120404 -4.801396 48.255319 -0.913553 -2.827508 21.078159 -1.383300 0.000000 -74.646701
0.801221 17.033226 0.068850 -41.291886 -70.667041 40.277335 -13.448468 -2.052330 -3.088589 -0.698612 -2.231525 -6.773452 -0.874208 1.491752 27.307497 1.652976 7.734947 -17.959711 -1.617700 -0.000000 -21.002200 5.214651 4.976689 -2.515127 6.665092 -9.321325 -82.488035 1.024691 -4.776453 48.897343 -0.897297 -2.695777 20.479418 -1.282900 0.000000 -73.590300
0.786631 17.036168 0.037129 -40.224953 -70.834156 39.270194 -13.302739 -1.905147 -2.925155 -1.105331 -2.056230 -7.008402 -0.921338 1.440398 27.171295 1.609397 7.456454 -17.834647 -1.561401 0.000000 -21.152700 5.506517 4.757309 -2.600402 6.878796 -8.927489 -79.713356 0.943695 -4.734158 49.325940 -0.886227 -2.612510 19.849038 -1.208900 -0.000000 -72.219500
0.769996 17.040636 0.002393 -38.883271 -70.966608 38.005389 -13.141363 -1.756879 -2.760527 -1.579027 -1.965407 -7.198555 -0.969480 1.387435 26.976843 1.567928 7.193915 -17.658638 -1.501201 0.000000 -21.338099 5.806234 4.540648 -2.669981 7.004109 -8.634586 -76.936541 0.869474 -4.682518 49.629372 -0.884706 -2.596546 19.203743 -1.167300 -0.000000 -70.858001
0.751195 17.046326 -0.034219 -37.343367 -71.057785 36.555594 -12.974253 -1.609133 -2.591584 -2.090405 -1.944588 -7.342899 -1.017541 1.332339 26.719509 1.529626 6.950962 -17.453548 -1.441200 -0.000000 -21.518800 6.105081 4.323944 -2.731256 7.073928 -8.426217 -74.179149 0.797123 -4.627063 49.880684 -0.895162 -2.664045 18.566744 -1.163200 0.000000 -69.745001
